<mxfile host="app.diagrams.net" agent="Mozilla/5.0 (Macintosh; Intel Mac OS X 10_15_7) AppleWebKit/537.36 (KHTML, like Gecko) Chrome/138.0.0.0 Safari/537.36 Edg/138.0.0.0" version="27.2.0">
  <diagram name="API分类分级矩阵-电商支付" id="ecommerce-api-matrix">
    <mxGraphModel dx="1179" dy="705" grid="1" gridSize="10" guides="1" tooltips="1" connect="1" arrows="1" fold="1" page="1" pageScale="1" pageWidth="1169" pageHeight="827" math="0" shadow="0">
      <root>
        <mxCell id="0" />
        <mxCell id="1" parent="0" />
        <mxCell id="title" value="API分类分级矩阵 - 电商&amp;支付场景" style="text;html=1;strokeColor=none;fillColor=none;align=center;verticalAlign=middle;whiteSpace=wrap;rounded=0;fontSize=20;fontStyle=1;" parent="1" vertex="1">
          <mxGeometry x="415" y="90" width="370" height="30" as="geometry" />
        </mxCell>
        <mxCell id="y-axis-label" value="敏感程度" style="text;html=1;strokeColor=none;fillColor=none;align=center;verticalAlign=middle;whiteSpace=wrap;rounded=0;fontSize=14;fontStyle=1;rotation=-90;" parent="1" vertex="1">
          <mxGeometry x="290" y="300" width="60" height="30" as="geometry" />
        </mxCell>
        <mxCell id="x-axis-label" value="业务重要性" style="text;html=1;strokeColor=none;fillColor=none;align=center;verticalAlign=middle;whiteSpace=wrap;rounded=0;fontSize=14;fontStyle=1;" parent="1" vertex="1">
          <mxGeometry x="565" y="540" width="100" height="30" as="geometry" />
        </mxCell>
        <mxCell id="high-low" value="" style="rounded=0;whiteSpace=wrap;html=1;fillColor=#FFE6E6;strokeColor=#D32F2F;strokeWidth=2;" parent="1" vertex="1">
          <mxGeometry x="390" y="150" width="150" height="120" as="geometry" />
        </mxCell>
        <mxCell id="high-medium" value="" style="rounded=0;whiteSpace=wrap;html=1;fillColor=#FFCCCC;strokeColor=#D32F2F;strokeWidth=2;" parent="1" vertex="1">
          <mxGeometry x="540" y="150" width="150" height="120" as="geometry" />
        </mxCell>
        <mxCell id="high-high" value="" style="rounded=0;whiteSpace=wrap;html=1;fillColor=#FF9999;strokeColor=#B71C1C;strokeWidth=3;" parent="1" vertex="1">
          <mxGeometry x="690" y="150" width="150" height="120" as="geometry" />
        </mxCell>
        <mxCell id="medium-low" value="" style="rounded=0;whiteSpace=wrap;html=1;fillColor=#FFF3E0;strokeColor=#FF9800;strokeWidth=2;" parent="1" vertex="1">
          <mxGeometry x="390" y="270" width="150" height="120" as="geometry" />
        </mxCell>
        <mxCell id="medium-medium" value="" style="rounded=0;whiteSpace=wrap;html=1;fillColor=#FFE0B2;strokeColor=#FF9800;strokeWidth=2;" parent="1" vertex="1">
          <mxGeometry x="540" y="270" width="150" height="120" as="geometry" />
        </mxCell>
        <mxCell id="medium-high" value="" style="rounded=0;whiteSpace=wrap;html=1;fillColor=#FFCC80;strokeColor=#F57C00;strokeWidth=2;" parent="1" vertex="1">
          <mxGeometry x="690" y="270" width="150" height="120" as="geometry" />
        </mxCell>
        <mxCell id="low-low" value="" style="rounded=0;whiteSpace=wrap;html=1;fillColor=#F1F8E9;strokeColor=#8BC34A;strokeWidth=2;" parent="1" vertex="1">
          <mxGeometry x="390" y="390" width="150" height="120" as="geometry" />
        </mxCell>
        <mxCell id="low-medium" value="" style="rounded=0;whiteSpace=wrap;html=1;fillColor=#DCEDC8;strokeColor=#8BC34A;strokeWidth=2;" parent="1" vertex="1">
          <mxGeometry x="540" y="390" width="150" height="120" as="geometry" />
        </mxCell>
        <mxCell id="low-high" value="" style="rounded=0;whiteSpace=wrap;html=1;fillColor=#C8E6C9;strokeColor=#689F38;strokeWidth=2;" parent="1" vertex="1">
          <mxGeometry x="690" y="390" width="150" height="120" as="geometry" />
        </mxCell>
        <mxCell id="high-sens-label" value="高" style="text;html=1;strokeColor=none;fillColor=none;align=center;verticalAlign=middle;whiteSpace=wrap;rounded=0;fontSize=12;fontStyle=1;" parent="1" vertex="1">
          <mxGeometry x="330" y="195" width="60" height="30" as="geometry" />
        </mxCell>
        <mxCell id="medium-sens-label" value="中" style="text;html=1;strokeColor=none;fillColor=none;align=center;verticalAlign=middle;whiteSpace=wrap;rounded=0;fontSize=12;fontStyle=1;" parent="1" vertex="1">
          <mxGeometry x="330" y="315" width="60" height="30" as="geometry" />
        </mxCell>
        <mxCell id="low-sens-label" value="低" style="text;html=1;strokeColor=none;fillColor=none;align=center;verticalAlign=middle;whiteSpace=wrap;rounded=0;fontSize=12;fontStyle=1;" parent="1" vertex="1">
          <mxGeometry x="330" y="435" width="60" height="30" as="geometry" />
        </mxCell>
        <mxCell id="low-imp-label" value="低" style="text;html=1;strokeColor=none;fillColor=none;align=center;verticalAlign=middle;whiteSpace=wrap;rounded=0;fontSize=12;fontStyle=1;" parent="1" vertex="1">
          <mxGeometry x="435" y="520" width="60" height="30" as="geometry" />
        </mxCell>
        <mxCell id="medium-imp-label" value="中" style="text;html=1;strokeColor=none;fillColor=none;align=center;verticalAlign=middle;whiteSpace=wrap;rounded=0;fontSize=12;fontStyle=1;" parent="1" vertex="1">
          <mxGeometry x="585" y="520" width="60" height="30" as="geometry" />
        </mxCell>
        <mxCell id="high-imp-label" value="高" style="text;html=1;strokeColor=none;fillColor=none;align=center;verticalAlign=middle;whiteSpace=wrap;rounded=0;fontSize=12;fontStyle=1;" parent="1" vertex="1">
          <mxGeometry x="735" y="520" width="60" height="30" as="geometry" />
        </mxCell>
        <mxCell id="level5-label" value="5级" style="ellipse;whiteSpace=wrap;html=1;fillColor=#B71C1C;fontColor=white;fontSize=16;fontStyle=1;" parent="1" vertex="1">
          <mxGeometry x="800" y="160" width="30" height="30" as="geometry" />
        </mxCell>
        <mxCell id="level5-apis" value="• 支付接口&#xa;• 转账API&#xa;• 提现接口&#xa;• 退款API&#xa;• 资金变动&#xa;• 敏感信息查询" style="text;html=1;strokeColor=none;fillColor=none;align=left;verticalAlign=top;whiteSpace=wrap;rounded=0;fontSize=10;" parent="1" vertex="1">
          <mxGeometry x="700" y="185" width="130" height="70" as="geometry" />
        </mxCell>
        <mxCell id="level4-label" value="4级" style="ellipse;whiteSpace=wrap;html=1;fillColor=#D32F2F;fontColor=white;fontSize=14;fontStyle=1;" parent="1" vertex="1">
          <mxGeometry x="650" y="160" width="30" height="30" as="geometry" />
        </mxCell>
        <mxCell id="level4-apis" value="• 用户认证API&#xa;• 密码重置&#xa;• 个人信息修改&#xa;• 银行卡绑定&#xa;• 订单支付状态" style="text;html=1;strokeColor=none;fillColor=none;align=left;verticalAlign=top;whiteSpace=wrap;rounded=0;fontSize=10;" parent="1" vertex="1">
          <mxGeometry x="550" y="195" width="130" height="70" as="geometry" />
        </mxCell>
        <mxCell id="level4b-label" value="4级" style="ellipse;whiteSpace=wrap;html=1;fillColor=#F57C00;fontColor=white;fontSize=14;fontStyle=1;" parent="1" vertex="1">
          <mxGeometry x="800" y="280" width="30" height="30" as="geometry" />
        </mxCell>
        <mxCell id="level4b-apis" value="• 订单创建API&#xa;• 库存扣减&#xa;• 优惠券使用&#xa;• 积分操作&#xa;• 会员等级变更" style="text;html=1;strokeColor=none;fillColor=none;align=left;verticalAlign=top;whiteSpace=wrap;rounded=0;fontSize=10;" parent="1" vertex="1">
          <mxGeometry x="700" y="305" width="130" height="70" as="geometry" />
        </mxCell>
        <mxCell id="level3a-label" value="3级" style="ellipse;whiteSpace=wrap;html=1;fillColor=#D32F2F;fontColor=white;fontSize=12;fontStyle=1;" parent="1" vertex="1">
          <mxGeometry x="500" y="160" width="30" height="30" as="geometry" />
        </mxCell>
        <mxCell id="level3a-apis" value="• 登录日志查询&#xa;• 设备信息获取&#xa;• 安全设置查看" style="text;html=1;strokeColor=none;fillColor=none;align=left;verticalAlign=top;whiteSpace=wrap;rounded=0;fontSize=10;" parent="1" vertex="1">
          <mxGeometry x="400" y="195" width="130" height="50" as="geometry" />
        </mxCell>
        <mxCell id="level3b-label" value="3级" style="ellipse;whiteSpace=wrap;html=1;fillColor=#FF9800;fontColor=white;fontSize=12;fontStyle=1;" parent="1" vertex="1">
          <mxGeometry x="650" y="280" width="30" height="30" as="geometry" />
        </mxCell>
        <mxCell id="level3b-apis" value="• 订单查询API&#xa;• 物流跟踪&#xa;• 收货地址管理&#xa;• 购物车操作" style="text;html=1;strokeColor=none;fillColor=none;align=left;verticalAlign=top;whiteSpace=wrap;rounded=0;fontSize=10;" parent="1" vertex="1">
          <mxGeometry x="550" y="315" width="130" height="60" as="geometry" />
        </mxCell>
        <mxCell id="level2a-label" value="2级" style="ellipse;whiteSpace=wrap;html=1;fillColor=#689F38;fontColor=white;fontSize=12;fontStyle=1;" parent="1" vertex="1">
          <mxGeometry x="800" y="400" width="30" height="30" as="geometry" />
        </mxCell>
        <mxCell id="level2a-apis" value="• 商品详情API&#xa;• 搜索接口&#xa;• 分类导航&#xa;• 推荐算法API" style="text;html=1;strokeColor=none;fillColor=none;align=left;verticalAlign=top;whiteSpace=wrap;rounded=0;fontSize=10;" parent="1" vertex="1">
          <mxGeometry x="700" y="435" width="130" height="60" as="geometry" />
        </mxCell>
        <mxCell id="level2b-label" value="2级" style="ellipse;whiteSpace=wrap;html=1;fillColor=#FF9800;fontColor=white;fontSize=12;fontStyle=1;" parent="1" vertex="1">
          <mxGeometry x="500" y="280" width="30" height="30" as="geometry" />
        </mxCell>
        <mxCell id="level2b-apis" value="• 浏览历史&#xa;• 收藏管理&#xa;• 评价查询" style="text;html=1;strokeColor=none;fillColor=none;align=left;verticalAlign=top;whiteSpace=wrap;rounded=0;fontSize=10;" parent="1" vertex="1">
          <mxGeometry x="400" y="315" width="130" height="50" as="geometry" />
        </mxCell>
        <mxCell id="level2c-label" value="2级" style="ellipse;whiteSpace=wrap;html=1;fillColor=#8BC34A;fontColor=white;fontSize=12;fontStyle=1;" parent="1" vertex="1">
          <mxGeometry x="650" y="400" width="30" height="30" as="geometry" />
        </mxCell>
        <mxCell id="level2c-apis" value="• 商品列表API&#xa;• 促销活动查询&#xa;• 店铺信息" style="text;html=1;strokeColor=none;fillColor=none;align=left;verticalAlign=top;whiteSpace=wrap;rounded=0;fontSize=10;" parent="1" vertex="1">
          <mxGeometry x="550" y="435" width="130" height="50" as="geometry" />
        </mxCell>
        <mxCell id="level1-label" value="1级" style="ellipse;whiteSpace=wrap;html=1;fillColor=#8BC34A;fontColor=white;fontSize=12;fontStyle=1;" parent="1" vertex="1">
          <mxGeometry x="500" y="400" width="30" height="30" as="geometry" />
        </mxCell>
        <mxCell id="level1-apis" value="• 公告信息API&#xa;• 帮助中心&#xa;• 静态页面内容&#xa;• 天气/时间等" style="text;html=1;strokeColor=none;fillColor=none;align=left;verticalAlign=top;whiteSpace=wrap;rounded=0;fontSize=10;" parent="1" vertex="1">
          <mxGeometry x="400" y="435" width="130" height="60" as="geometry" />
        </mxCell>
        <mxCell id="legend-bg" value="" style="rounded=1;whiteSpace=wrap;html=1;fillColor=#F5F5F5;strokeColor=#CCCCCC;" parent="1" vertex="1">
          <mxGeometry x="1190" y="150" width="320" height="400" as="geometry" />
        </mxCell>
        <mxCell id="legend-title" value="防护策略对应表" style="text;html=1;strokeColor=none;fillColor=none;align=center;verticalAlign=middle;whiteSpace=wrap;rounded=0;fontSize=16;fontStyle=1;" parent="1" vertex="1">
          <mxGeometry x="1210" y="170" width="280" height="30" as="geometry" />
        </mxCell>
        <mxCell id="level5-protection" value="5级 - 极高风险防护" style="text;html=1;strokeColor=none;fillColor=#B71C1C;fontColor=white;align=center;verticalAlign=middle;whiteSpace=wrap;rounded=1;fontSize=12;fontStyle=1;" parent="1" vertex="1">
          <mxGeometry x="1210" y="210" width="280" height="25" as="geometry" />
        </mxCell>
        <mxCell id="level5-measures" value="• 多因素认证 + 生物识别&#xa;• 实时风控决策引擎&#xa;• 端到端加密传输&#xa;• 操作日志完整审计&#xa;• 异常行为实时拦截&#xa;• 24小时安全监控" style="text;html=1;strokeColor=none;fillColor=none;align=left;verticalAlign=top;whiteSpace=wrap;rounded=0;fontSize=10;" parent="1" vertex="1">
          <mxGeometry x="1220" y="240" width="260" height="85" as="geometry" />
        </mxCell>
        <mxCell id="level34-protection" value="3-4级 - 中高风险防护" style="text;html=1;strokeColor=none;fillColor=#FF9800;fontColor=white;align=center;verticalAlign=middle;whiteSpace=wrap;rounded=1;fontSize=12;fontStyle=1;" parent="1" vertex="1">
          <mxGeometry x="1210" y="330" width="280" height="25" as="geometry" />
        </mxCell>
        <mxCell id="level34-measures" value="• JWT令牌认证&#xa;• 参数校验 + SQL注入防护&#xa;• API限流 + 熔断机制&#xa;• 敏感数据加密存储&#xa;• 访问日志记录&#xa;• WAF规则防护" style="text;html=1;strokeColor=none;fillColor=none;align=left;verticalAlign=top;whiteSpace=wrap;rounded=0;fontSize=10;" parent="1" vertex="1">
          <mxGeometry x="1220" y="360" width="260" height="85" as="geometry" />
        </mxCell>
        <mxCell id="level12-protection" value="1-2级 - 基础防护" style="text;html=1;strokeColor=none;fillColor=#8BC34A;fontColor=white;align=center;verticalAlign=middle;whiteSpace=wrap;rounded=1;fontSize=12;fontStyle=1;" parent="1" vertex="1">
          <mxGeometry x="1210" y="450" width="280" height="25" as="geometry" />
        </mxCell>
        <mxCell id="level12-measures" value="• 基础访问控制&#xa;• 简单频率限制&#xa;• 异常流量监控&#xa;• 基础日志记录&#xa;• CDN缓存优化" style="text;html=1;strokeColor=none;fillColor=none;align=left;verticalAlign=top;whiteSpace=wrap;rounded=0;fontSize=10;" parent="1" vertex="1">
          <mxGeometry x="1220" y="480" width="260" height="70" as="geometry" />
        </mxCell>
        <mxCell id="note" value="注：此矩阵基于电商和支付场景设计，企业应根据实际业务调整分类标准和防护措施" style="text;html=1;strokeColor=none;fillColor=none;align=center;verticalAlign=middle;whiteSpace=wrap;rounded=0;fontSize=11;fontStyle=2;fontColor=#666666;" parent="1" vertex="1">
          <mxGeometry x="200" y="570" width="800" height="30" as="geometry" />
        </mxCell>
      </root>
    </mxGraphModel>
  </diagram>
</mxfile>
